<?xml version="1.0" encoding="iso-8859-1"?>
<!-- Generator: Adobe Illustrator 19.0.0, SVG Export Plug-In . SVG Version: 6.00 Build 0)  -->
<svg version="1.1" id="Layer_1" xmlns="http://www.w3.org/2000/svg" xmlns:xlink="http://www.w3.org/1999/xlink" x="0px" y="0px"
	 viewBox="0 0 512 512" style="enable-background:new 0 0 512 512;" xml:space="preserve">
<path style="fill:#FFC033;" d="M72.348,378.435v116.87c0,9.223,7.479,16.696,16.696,16.696h333.913
	c9.217,0,16.696-7.473,16.696-16.696v-116.87H72.348z"/>
<g>
	<path style="fill:#F9A926;" d="M256,512h166.957c9.217,0,16.696-7.473,16.696-16.696v-116.87H256V512z"/>
	<path style="fill:#F9A926;" d="M389.565,278.261h-267.13c-9.217,0-16.696-7.473-16.696-16.696V16.696
		C105.739,7.473,113.218,0,122.435,0h267.13c9.217,0,16.696,7.473,16.696,16.696v244.87
		C406.261,270.788,398.782,278.261,389.565,278.261z"/>
</g>
<path style="fill:#F29718;" d="M389.565,0H256v278.261h133.565c9.217,0,16.696-7.473,16.696-16.696V16.696
	C406.261,7.473,398.782,0,389.565,0z"/>
<polygon style="fill:#736056;" points="406.206,244.87 105.739,245.158 72.348,378.435 439.652,378.435 "/>
<polygon style="fill:#665247;" points="256,378.435 439.652,378.435 406.206,244.87 256,245.013 "/>
<path style="fill:#736056;" d="M322.783,211.478H189.217c-9.217,0-16.696-7.473-16.696-16.696V83.478
	c0-9.223,7.479-16.696,16.696-16.696h133.565c9.217,0,16.696,7.473,16.696,16.696v111.304
	C339.478,204.005,332,211.478,322.783,211.478z"/>
<path style="fill:#E6563A;" d="M205.913,378.435v-50.087c0-9.223-7.479-16.696-16.696-16.696c-9.217,0-16.696,7.473-16.696,16.696
	v50.087H205.913z"/>
<path style="fill:#D9472B;" d="M339.478,378.435v-50.087c0-9.223-7.479-16.696-16.696-16.696s-16.696,7.473-16.696,16.696v50.087
	H339.478z"/>
<g>
	<path style="fill:#E6563A;" d="M372.87,512H139.13v-83.478c0-9.22,7.475-16.696,16.696-16.696h200.348
		c9.22,0,16.696,7.475,16.696,16.696V512z"/>
	<path style="fill:#E6563A;" d="M422.957,33.391H89.043c-9.217,0-16.696-7.473-16.696-16.696S79.826,0,89.043,0h333.913
		c9.217,0,16.696,7.473,16.696,16.696S432.174,33.391,422.957,33.391z"/>
</g>
<path style="fill:#D9472B;" d="M356.174,411.826H256V512h116.87v-83.478C372.87,419.301,365.394,411.826,356.174,411.826z"/>
<path style="fill:#665247;" d="M322.783,66.783H256v144.696h66.783c9.217,0,16.696-7.473,16.696-16.696V83.478
	C339.478,74.256,332,66.783,322.783,66.783z"/>
<path style="fill:#D9472B;" d="M422.957,0H256v33.391h166.957c9.217,0,16.696-7.473,16.696-16.696S432.174,0,422.957,0z"/>
<g>
</g>
<g>
</g>
<g>
</g>
<g>
</g>
<g>
</g>
<g>
</g>
<g>
</g>
<g>
</g>
<g>
</g>
<g>
</g>
<g>
</g>
<g>
</g>
<g>
</g>
<g>
</g>
<g>
</g>
</svg>
