<?xml version="1.0" encoding="iso-8859-1"?>
<!-- Generator: Adobe Illustrator 19.0.0, SVG Export Plug-In . SVG Version: 6.00 Build 0)  -->
<svg version="1.1" id="Layer_1" xmlns="http://www.w3.org/2000/svg" xmlns:xlink="http://www.w3.org/1999/xlink" x="0px" y="0px"
	 viewBox="0 0 512 512" style="enable-background:new 0 0 512 512;" xml:space="preserve">
<path style="fill:#E0A03D;" d="M486.582,103.743l-0.001,0.001c17.521-21.888,16.149-53.911-4.136-74.194
	c-20.284-20.284-52.307-21.655-74.194-4.135C368.298-1.867,313.357,2.193,277.896,37.654L37.658,277.894
	C2.197,313.354-1.865,368.297,25.42,408.249c0.011-0.013,0.022-0.025,0.032-0.039c-17.554,21.884-16.192,53.932,4.104,74.231
	c20.289,20.29,52.323,21.66,74.207,4.123c-0.006,0.005-0.011,0.01-0.016,0.014c39.955,27.288,94.895,23.22,130.353-12.237
	l240.242-240.244C509.803,198.638,513.87,143.699,486.582,103.743z M27.233,406.102c0.072-0.081,0.14-0.166,0.213-0.247
	C27.373,405.936,27.306,406.021,27.233,406.102z M106.102,484.59c0.002-0.001,0.005-0.003,0.005-0.003
	S106.104,484.589,106.102,484.59z"/>
<path style="fill:#AF6518;" d="M177.228,413.596l-68.845,68.844c-21.767,21.769-57.057,21.769-78.825,0.001l0,0
	c-21.766-21.768-21.766-57.057,0-78.823L403.62,29.55c21.769-21.765,57.06-21.765,78.826,0l0,0
	c21.767,21.766,21.767,57.059,0,78.828L191.558,399.266"/>
<g>
	<path style="fill:#491E17;" d="M495.8,104.003c0.009-0.012,0.016-0.025,0.023-0.037c0.195-0.294,0.377-0.594,0.566-0.891
		c0.376-0.585,0.747-1.171,1.101-1.765c0.108-0.181,0.21-0.365,0.315-0.547c0.437-0.749,0.858-1.503,1.26-2.263
		c0.03-0.059,0.061-0.116,0.09-0.173c10.672-20.305,9.455-44.872-3.115-64.03c-0.102-0.156-0.208-0.312-0.311-0.467
		c-0.442-0.659-0.895-1.31-1.362-1.955c-0.163-0.226-0.328-0.451-0.494-0.677c-0.43-0.575-0.871-1.145-1.323-1.709
		c-0.2-0.25-0.396-0.501-0.6-0.748c-0.461-0.559-0.937-1.109-1.419-1.656c-0.2-0.226-0.392-0.455-0.596-0.679
		c-0.686-0.756-1.389-1.5-2.119-2.229c-0.764-0.764-1.545-1.504-2.34-2.223c-0.116-0.107-0.239-0.204-0.358-0.309
		c-0.69-0.615-1.387-1.22-2.098-1.801c-0.029-0.023-0.06-0.046-0.089-0.069c-11.249-9.158-25.184-14.141-39.888-14.141
		c-4.082,0-8.139,0.405-12.114,1.182c-0.003,0-0.005,0.001-0.008,0.002c-0.873,0.17-1.743,0.362-2.607,0.568
		c-0.245,0.059-0.49,0.119-0.736,0.179c-0.63,0.159-1.256,0.329-1.88,0.507c-0.315,0.09-0.632,0.173-0.946,0.267
		c-0.764,0.231-1.522,0.474-2.275,0.733c-0.541,0.185-1.077,0.386-1.613,0.585c-0.266,0.1-0.533,0.198-0.798,0.301
		c-0.575,0.224-1.148,0.454-1.716,0.695c-0.171,0.072-0.341,0.148-0.512,0.222c-1.884,0.814-3.735,1.723-5.547,2.728
		c-0.182,0.101-0.366,0.202-0.547,0.305c-0.546,0.31-1.089,0.627-1.627,0.953c-0.211,0.129-0.417,0.261-0.626,0.392
		c-0.502,0.313-1.004,0.619-1.499,0.948c-17.29-10.608-37.078-16.189-57.562-16.189c-29.431,0-57.1,11.46-77.91,32.271
		L32.287,272.52c-36.165,36.163-42.561,92.318-16.083,135.471c-0.012,0.018-0.022,0.035-0.033,0.054
		c-0.169,0.255-0.326,0.516-0.491,0.773c-0.405,0.628-0.804,1.26-1.185,1.899c-0.083,0.141-0.162,0.283-0.243,0.423
		c-0.467,0.797-0.915,1.601-1.343,2.412c-0.005,0.01-0.01,0.02-0.015,0.028c-10.731,20.328-9.522,44.948,3.088,64.142
		c0.088,0.135,0.178,0.267,0.267,0.402c0.453,0.678,0.92,1.35,1.402,2.012c0.154,0.214,0.31,0.428,0.468,0.64
		c0.437,0.587,0.887,1.164,1.345,1.74c0.194,0.243,0.386,0.488,0.584,0.729c0.465,0.563,0.946,1.119,1.433,1.669
		c0.196,0.223,0.386,0.449,0.586,0.669c0.687,0.756,1.391,1.502,2.121,2.231c1.361,1.361,2.779,2.642,4.238,3.863
		c0.144,0.12,0.282,0.249,0.427,0.369c11.291,9.277,25.318,14.321,40.123,14.321c0.3,0,0.596-0.018,0.895-0.022
		c0.565-0.008,1.129-0.018,1.693-0.042c0.533-0.022,1.064-0.055,1.594-0.089c0.298-0.02,0.595-0.042,0.892-0.065
		c10.805-0.851,21.064-4.399,29.977-10.346c17.285,10.602,37.065,16.18,57.543,16.181c0.004,0,0.002,0,0.006,0
		c29.426,0,57.098-11.462,77.907-32.272l240.242-240.243C515.879,203.308,522.271,147.151,495.8,104.003z M43.032,283.268
		L283.27,43.028c17.939-17.94,41.792-27.82,67.164-27.82c15.985,0,31.467,3.95,45.308,11.473L26.69,395.74
		C6.814,359.181,13.044,313.253,43.032,283.268z M468.971,228.724L228.728,468.967c-17.941,17.941-41.794,27.821-67.165,27.82
		c-15.985-0.001-31.467-3.951-45.307-11.474l66.344-66.343l-10.747-10.747l-68.845,68.845c-1.273,1.274-2.61,2.458-3.995,3.567
		v-0.001c-7.404,5.932-16.487,9.535-25.938,10.351c-0.065,0.006-0.131,0.01-0.195,0.015c-0.619,0.051-1.24,0.092-1.861,0.12
		c-0.096,0.004-0.193,0.003-0.29,0.007c-0.59,0.022-1.18,0.037-1.772,0.037c-12.853,0-24.937-5.006-34.027-14.095
		c-0.568-0.568-1.118-1.149-1.651-1.738c-0.145-0.16-0.281-0.325-0.424-0.486c-0.387-0.441-0.773-0.88-1.141-1.331
		c-0.137-0.166-0.265-0.336-0.399-0.505c-0.368-0.461-0.732-0.923-1.079-1.394c-0.105-0.143-0.206-0.288-0.31-0.432
		c-0.371-0.515-0.736-1.032-1.083-1.556c-0.066-0.099-0.128-0.198-0.193-0.296c-0.386-0.592-0.762-1.188-1.119-1.794
		c-0.019-0.03-0.036-0.063-0.056-0.094c-9.228-15.689-8.81-35.526,1.252-50.84c0.312-0.472,0.639-0.936,0.97-1.4
		c0.104-0.147,0.201-0.295,0.307-0.441c0.405-0.557,0.829-1.107,1.262-1.653c0.547-0.687,1.112-1.365,1.702-2.028l0.194-0.225
		l-0.021,0.024c0.576-0.642,1.17-1.274,1.788-1.891L408.992,34.924c1.126-1.126,2.297-2.179,3.503-3.171l0.472-0.378
		c0.048-0.037,0.097-0.073,0.145-0.111c1.489-1.184,3.047-2.274,4.661-3.269c0.094-0.058,0.187-0.118,0.281-0.175
		c0.49-0.298,0.988-0.584,1.488-0.862c0.111-0.063,0.225-0.126,0.337-0.188c0.507-0.278,1.018-0.546,1.535-0.805
		c0.095-0.048,0.19-0.094,0.285-0.141c0.54-0.266,1.083-0.525,1.633-0.772c0.035-0.016,0.072-0.03,0.108-0.047
		c1.726-0.768,3.497-1.431,5.303-1.992c0.108-0.033,0.217-0.072,0.326-0.104c0.368-0.111,0.741-0.21,1.111-0.313
		c0.364-0.1,0.728-0.203,1.094-0.295c0.27-0.068,0.54-0.129,0.811-0.191c0.497-0.116,0.995-0.228,1.495-0.326
		c0.173-0.035,0.347-0.067,0.52-0.101c0.642-0.12,1.286-0.23,1.929-0.324c0.05-0.007,0.098-0.015,0.148-0.021
		c12.959-1.85,26.531,1.572,37.214,10.266c0.012,0.009,0.023,0.017,0.033,0.026c0.55,0.447,1.089,0.916,1.624,1.392
		c0.081,0.072,0.165,0.14,0.246,0.213c0.604,0.546,1.198,1.109,1.779,1.691c0.568,0.568,1.118,1.148,1.65,1.737
		c0.148,0.163,0.287,0.332,0.434,0.498c0.382,0.434,0.763,0.868,1.128,1.314c0.144,0.175,0.279,0.356,0.419,0.532
		c0.359,0.449,0.714,0.902,1.055,1.362c0.115,0.154,0.224,0.313,0.336,0.469c0.36,0.498,0.713,1.001,1.052,1.511
		c0.077,0.116,0.151,0.232,0.227,0.35c0.371,0.57,0.733,1.144,1.077,1.724c0.034,0.058,0.067,0.114,0.101,0.172
		c9.193,15.667,8.776,35.456-1.247,50.751c-0.369,0.561-0.754,1.114-1.149,1.664c-0.044,0.06-0.083,0.122-0.127,0.181
		c-0.425,0.584-0.865,1.161-1.32,1.731c-0.028,0.035-0.056,0.072-0.084,0.107l-0.381,0.476c-0.991,1.207-2.045,2.377-3.171,3.503
		l-290.89,290.887l10.747,10.747l288.384-288.384C505.187,152.814,498.959,198.736,468.971,228.724z"/>
	<path style="fill:#491E17;" d="M221.052,297.905c-0.89-10.975-1.593-19.645,6.557-27.795c8.148-8.15,16.816-7.447,27.791-6.555
		c11.872,0.961,26.65,2.162,39.768-10.956c13.12-13.12,11.922-27.895,10.959-39.768c-0.891-10.975-1.594-19.643,6.557-27.793
		c8.146-8.146,16.814-7.443,27.789-6.552c11.874,0.965,26.649,2.165,39.767-10.953c13.116-13.118,11.915-27.893,10.95-39.765
		c-0.892-10.975-1.597-19.642,6.553-27.791c8.148-8.148,16.816-7.444,27.789-6.555c11.876,0.963,26.65,2.163,39.77-10.958
		l-10.747-10.745c-8.149,8.148-16.82,7.447-27.793,6.556c-11.872-0.964-26.648-2.164-39.765,10.955
		c-13.121,13.119-11.92,27.895-10.953,39.768c0.892,10.974,1.596,19.641-6.549,27.788c-8.148,8.147-16.816,7.444-27.791,6.552
		c-11.871-0.966-26.649-2.164-39.765,10.953c-13.121,13.12-11.923,27.896-10.959,39.768c0.891,10.975,1.593,19.643-6.557,27.792
		c-8.149,8.149-16.819,7.446-27.792,6.556c-11.875-0.965-26.651-2.162-39.768,10.956c-13.119,13.12-11.921,27.896-10.956,39.769
		c0.89,10.975,1.593,19.645-6.556,27.793c-8.151,8.151-16.821,7.449-27.794,6.556c-11.871-0.965-26.648-2.166-39.769,10.957
		c-13.12,13.12-11.922,27.897-10.959,39.771c0.891,10.977,1.593,19.647-6.558,27.798c-8.15,8.151-16.815,7.45-27.797,6.557
		c-11.873-0.962-26.652-2.16-39.773,10.96l10.747,10.747c8.151-8.151,16.822-7.447,27.799-6.559
		c11.872,0.965,26.651,2.161,39.771-10.959c13.12-13.121,11.922-27.898,10.959-39.771c-0.891-10.977-1.593-19.647,6.558-27.798
		c8.147-8.15,16.818-7.45,27.792-6.556c11.876,0.964,26.65,2.163,39.77-10.955C223.214,324.554,222.015,309.778,221.052,297.905z"/>
</g>
<g>
</g>
<g>
</g>
<g>
</g>
<g>
</g>
<g>
</g>
<g>
</g>
<g>
</g>
<g>
</g>
<g>
</g>
<g>
</g>
<g>
</g>
<g>
</g>
<g>
</g>
<g>
</g>
<g>
</g>
</svg>
